<?xml version="1.0" encoding="utf-8"?>
<!-- Generator: Adobe Illustrator 24.0.0, SVG Export Plug-In . SVG Version: 6.00 Build 0)  -->
<svg version="1.1" id="Layer_1" xmlns="http://www.w3.org/2000/svg" xmlns:xlink="http://www.w3.org/1999/xlink" width="180" height="50"
	 viewBox="0 0 180 50" style="enable-background:new 0 0 180 50;" xml:space="preserve">
<style type="text/css">
	.st0{fill:#002554;}
</style>
<g>
	<g>
		<g>
			<g>
				<g>
					<g>
						<g>
							<g>
								<path class="st0" d="M160.5,13.8c0-1.7-1.4-2.4-1.4-4c0-1.3,0.9-2.5,2.6-2.5c1.8,0,3.2,1.5,3.2,4c0,2.6-1.4,4.5-3.6,6.3
									c-0.1,0.1-0.3,0.3-0.3,0.3l-1.4-1.1c0,0,0.1-0.2,0.2-0.2C160.3,15.6,160.5,15,160.5,13.8z"/>
								<path class="st0" d="M165.1,26.9c1,3.2,3,5.9,5.6,5.9c1.7,0,2.7-0.9,2.7-2.4c0-1.9-1.9-3-3.8-3.7c-3.4-1.3-5.7-3.1-5.7-6
									c0-3.9,2.9-6.1,7.6-6.1c2,0,4.2,0.4,5.8,1.4v5.2h-1.4c-0.7-2.9-2.4-4.7-4.3-4.7c-1.6,0-2.4,1-2.4,2.3c0,1.6,1.7,2.5,3.9,3.3
									c3.5,1.4,5.6,2.9,5.6,6.3c0,4.2-3.2,6.3-7.9,6.3c-2.2,0-5-0.5-6.5-1.9l-0.5-5.8H165.1z"/>
								<path class="st0" d="M51.3,16.9c1.8-1.7,4.4-2.6,7.4-2.6c1.3,0,2.5,0.2,3.3,0.5V9.6c0-1.6-0.3-1.9-0.9-2.1l-1.4-0.2V5.9
									l8-1.1L68,5.1v25.7c0,1.7,0.3,1.8,2.3,1.9v1.5h-8.1l-0.2-2c-2.1,1.7-4.3,2.5-5.7,2.5c-5,0-7.9-4-7.9-9.8
									C48.4,21.3,49.5,18.6,51.3,16.9z M59,31.6c2.5,0,3.1-1.9,3.1-3.4V20c0-0.8,0-1.7-0.3-2.3c-0.4-0.8-1.2-1.5-2.7-1.5
									c-2.2,0-4.4,2.1-4.4,7.9C54.6,29.1,56.4,31.6,59,31.6z"/>
							</g>
						</g>
						<path class="st0" d="M101.4,15.1c-1.6,0-2.8,1-5,3.3l-0.5-3.3l-7.4,1.1v1.4l1.3,0.2c0.6,0.1,0.9,0.4,0.9,1.9v11.1
							c0,1-0.2,1.4-0.9,1.6c-0.2,0.1-0.4,0.1-0.9,0.1c-0.3,0-0.9,0-1.2-0.1c-0.5-0.1-1.2-1.1-1.2-3.3v-8.7c0-2.3-0.4-5.3-7.1-5.3
							c-5.6,0-8.3,2.1-8.3,4.3c0,1.5,2.1,2.1,3,2.1c0.7,0,1.1-0.5,1.4-1.3c0.9-2.9,2.2-3.3,3.3-3.3c1.1,0,2.2,0.6,2.2,2.8v2
							c-1.3,0.9-4.5,1.9-7,2.7c-3,1-4,2.6-4,4.7c0,2.8,1.9,5.5,5.7,5.5c2.4,0,4.1-1.3,5.4-2.2c0.5,1.2,1,1.7,2.9,1.7
							c1,0,2.2,0,3.3,0c0.2,0,12.4,0,12.4,0v-1.4c-2.9-0.2-3.3-0.3-3.3-1.9v-8.5c0-2,0.4-2.8,1.3-2.8c0.6,0,1.2,0.3,2,0.8
							c0.5,0.3,1,0.6,1.7,0.6c0.8,0,1.5-0.4,1.9-1c0.4-0.6,0.6-1.3,0.6-2.2C104,16.1,103,15.1,101.4,15.1z M81,29
							c-0.1,2-1.3,2.6-2.3,2.6c-1.5,0-2.8-1.2-2.8-3.2c0-1.8,0.6-2.7,1.7-3.3c1.2-0.6,2.5-1.2,3.4-1.6V29z"/>
					</g>
					<g>
						<path class="st0" d="M158.2,30.8V20c0-3.6-1.8-5.8-5.7-5.8c-2.2,0-3.9,1.1-6.4,2.6l-0.2-2.2l-7.7,0.7v1.4l1.3,0.2
							c0.6,0.1,0.9,0.4,0.9,1.9v12c0,1.5-0.3,1.7-2,1.8c-1.8-0.1-2-0.3-2-1.8V15.3h-0.3l-6.1,0.2h-6.7v1.4l1.6,0.2
							c0.7,0.1,0.7,0.5,0.6,1.3c-0.3,1.9-1.7,6.3-2.6,9.8h-0.1l-3.6-12.7h-3.8l-3.4,13.2h-0.1L109,18.3c-0.2-0.8-0.1-1.1,0.7-1.2
							l1-0.1v-1.4h-6.1c0.4,0.6,0.6,1.4,0.6,2.2c0,1.1-0.3,2.1-0.8,2.8c0,0.1-0.1,0.1-0.2,0.2c0.3,1,0.6,1.8,1,3.3l3.1,10h4
							l3.3-11.6h0.1l3.7,11.6h4l2.6-8.9c0.8-2.6,1.5-5,2.1-6.4c0.5-1.3,0.8-1.7,2.2-1.8c0.4,0.2,0.6,0.6,0.6,1.8v11.9
							c0,1.6-0.3,1.7-2.4,1.9v1.4h9.5h0.8h9.3v-1.4l-0.8-0.1c-0.8-0.1-1.2-0.3-1.2-1.5v-9.9c0-0.8,0.1-1.7,0.4-2.2
							c0.5-1,1.5-1.9,3.1-1.9c1.9,0,2.9,1.2,3,3.4V31c0,1.2-0.4,1.4-1.2,1.5l-0.8,0.1v1.4h10.1v-1.4
							C158.5,32.5,158.2,32.4,158.2,30.8z"/>
						<path class="st0" d="M133.3,13.4c2.1,0,3.5-1.5,3.5-3.3c0-1.8-1.3-3.3-3.5-3.3c-2.1,0-3.4,1.5-3.4,3.3
							C129.9,11.9,131.2,13.4,133.3,13.4z"/>
					</g>
				</g>
				<g>
					<path class="st0" d="M80.4,43.6v3.2c0,0.2-0.1,0.3-0.2,0.4c-0.1,0.1-0.2,0.2-0.4,0.2c-0.2,0-0.3-0.1-0.4-0.2
						c-0.1-0.1-0.2-0.2-0.2-0.4v-3.2c0-0.5-0.1-0.8-0.3-1.1c-0.2-0.3-0.6-0.4-1-0.4c-0.3,0-0.6,0.1-0.9,0.2
						c-0.3,0.1-0.5,0.3-0.6,0.6c-0.1,0.2-0.2,0.5-0.2,0.8v3.2c0,0.2-0.1,0.3-0.2,0.4c-0.1,0.1-0.2,0.2-0.4,0.2
						c-0.2,0-0.3-0.1-0.4-0.2c-0.1-0.1-0.2-0.2-0.2-0.4v-5c0-0.2,0.1-0.3,0.2-0.4c0.1-0.1,0.2-0.2,0.4-0.2c0.2,0,0.3,0.1,0.4,0.2
						c0.1,0.1,0.2,0.2,0.2,0.4v0.4c0.2-0.3,0.5-0.6,0.9-0.8c0.4-0.2,0.8-0.3,1.2-0.3C79.7,41.1,80.4,41.9,80.4,43.6z"/>
					<path class="st0" d="M86.8,41.3c0.1,0.1,0.2,0.2,0.2,0.4v5.1c0,0.2-0.1,0.3-0.2,0.4c-0.1,0.1-0.2,0.2-0.4,0.2
						c-0.2,0-0.3-0.1-0.4-0.2c-0.1-0.1-0.2-0.2-0.2-0.4v-0.3c-0.2,0.3-0.5,0.5-0.8,0.7c-0.4,0.2-0.7,0.3-1.1,0.3
						c-0.5,0-1-0.1-1.4-0.4c-0.4-0.3-0.8-0.7-1-1.1c-0.2-0.5-0.4-1-0.4-1.6c0-0.6,0.1-1.2,0.4-1.6c0.2-0.5,0.6-0.9,1-1.1
						c0.4-0.3,0.9-0.4,1.4-0.4c0.4,0,0.8,0.1,1.2,0.3c0.4,0.2,0.6,0.4,0.9,0.7v-0.3c0-0.2,0.1-0.3,0.2-0.4c0.1-0.1,0.2-0.2,0.4-0.2
						C86.6,41.2,86.7,41.2,86.8,41.3z M85,46.2c0.3-0.2,0.5-0.4,0.7-0.8c0.2-0.3,0.2-0.7,0.2-1.1c0-0.4-0.1-0.8-0.2-1.1
						c-0.2-0.3-0.4-0.6-0.7-0.8c-0.3-0.2-0.6-0.3-1-0.3c-0.4,0-0.7,0.1-1,0.3c-0.3,0.2-0.5,0.4-0.7,0.8c-0.2,0.3-0.2,0.7-0.2,1.1
						c0,0.4,0.1,0.8,0.2,1.1c0.2,0.3,0.4,0.6,0.7,0.8c0.3,0.2,0.6,0.3,1,0.3C84.4,46.5,84.7,46.4,85,46.2z"/>
					<path class="st0" d="M89.7,42.3v3.5c0,0.4,0.2,0.6,0.5,0.6c0.1,0,0.1,0,0.2,0c0.1,0,0.2,0,0.2,0c0.1,0,0.2,0,0.3,0.1
						c0.1,0.1,0.1,0.2,0.1,0.3c0,0.2-0.1,0.3-0.3,0.4c-0.2,0.1-0.4,0.2-0.6,0.2c-0.3,0-0.5,0-0.7-0.1c-0.2-0.1-0.4-0.2-0.6-0.4
						c-0.2-0.2-0.3-0.6-0.3-1v-3.5h-0.7c-0.1,0-0.3,0-0.4-0.1c-0.1-0.1-0.1-0.2-0.1-0.4c0-0.1,0-0.3,0.1-0.4
						c0.1-0.1,0.2-0.1,0.4-0.1h0.7v-1c0-0.2,0.1-0.3,0.2-0.4c0.1-0.1,0.2-0.2,0.4-0.2c0.2,0,0.3,0.1,0.4,0.2
						c0.1,0.1,0.2,0.2,0.2,0.4v1h1c0.1,0,0.3,0,0.4,0.1c0.1,0.1,0.1,0.2,0.1,0.4c0,0.1,0,0.3-0.1,0.4c-0.1,0.1-0.2,0.1-0.4,0.1H89.7
						z"/>
					<path class="st0" d="M96.9,41.4c0.1,0.1,0.2,0.2,0.2,0.4v3.1c0,0.8-0.2,1.4-0.7,1.9c-0.4,0.4-1.1,0.7-1.9,0.7
						c-0.8,0-1.4-0.2-1.9-0.7c-0.4-0.4-0.7-1.1-0.7-1.9v-3.1c0-0.2,0.1-0.3,0.2-0.4c0.1-0.1,0.2-0.2,0.4-0.2c0.2,0,0.3,0.1,0.4,0.2
						c0.1,0.1,0.2,0.2,0.2,0.4v3.1c0,1,0.5,1.5,1.4,1.5c0.5,0,0.8-0.1,1.1-0.4c0.3-0.3,0.4-0.6,0.4-1.1v-3.1c0-0.2,0.1-0.3,0.2-0.4
						c0.1-0.1,0.2-0.2,0.4-0.2C96.7,41.2,96.8,41.3,96.9,41.4z"/>
					<path class="st0" d="M101.7,41.3c0.1,0.1,0.2,0.2,0.2,0.4c0,0.2,0,0.3-0.1,0.4c-0.1,0.1-0.2,0.1-0.4,0.1c-0.1,0-0.2,0-0.3-0.1
						c-0.2-0.1-0.3-0.1-0.4-0.1c-0.2,0-0.5,0.1-0.7,0.3c-0.2,0.2-0.4,0.4-0.6,0.7c-0.1,0.3-0.2,0.6-0.2,1v2.8c0,0.2-0.1,0.3-0.2,0.4
						c-0.1,0.1-0.2,0.2-0.4,0.2c-0.2,0-0.3-0.1-0.4-0.2c-0.1-0.1-0.2-0.2-0.2-0.4v-5c0-0.2,0.1-0.3,0.2-0.4c0.1-0.1,0.2-0.2,0.4-0.2
						c0.2,0,0.3,0.1,0.4,0.2c0.1,0.1,0.2,0.2,0.2,0.4v0.6c0.2-0.4,0.4-0.7,0.8-0.9c0.3-0.2,0.7-0.4,1.2-0.4
						C101.4,41.1,101.6,41.2,101.7,41.3z"/>
					<path class="st0" d="M107.7,41.3c0.1,0.1,0.2,0.2,0.2,0.4v5.1c0,0.2-0.1,0.3-0.2,0.4c-0.1,0.1-0.2,0.2-0.4,0.2
						c-0.2,0-0.3-0.1-0.4-0.2c-0.1-0.1-0.2-0.2-0.2-0.4v-0.3c-0.2,0.3-0.5,0.5-0.8,0.7c-0.4,0.2-0.7,0.3-1.1,0.3
						c-0.5,0-1-0.1-1.4-0.4c-0.4-0.3-0.8-0.7-1-1.1c-0.2-0.5-0.4-1-0.4-1.6c0-0.6,0.1-1.2,0.4-1.6c0.2-0.5,0.6-0.9,1-1.1
						c0.4-0.3,0.9-0.4,1.4-0.4c0.4,0,0.8,0.1,1.2,0.3c0.4,0.2,0.6,0.4,0.9,0.7v-0.3c0-0.2,0.1-0.3,0.2-0.4c0.1-0.1,0.2-0.2,0.4-0.2
						C107.4,41.2,107.5,41.2,107.7,41.3z M105.8,46.2c0.3-0.2,0.5-0.4,0.7-0.8c0.2-0.3,0.2-0.7,0.2-1.1c0-0.4-0.1-0.8-0.2-1.1
						c-0.2-0.3-0.4-0.6-0.7-0.8c-0.3-0.2-0.6-0.3-1-0.3c-0.4,0-0.7,0.1-1,0.3c-0.3,0.2-0.5,0.4-0.7,0.8c-0.2,0.3-0.2,0.7-0.2,1.1
						c0,0.4,0.1,0.8,0.2,1.1c0.2,0.3,0.4,0.6,0.7,0.8c0.3,0.2,0.6,0.3,1,0.3C105.2,46.5,105.6,46.4,105.8,46.2z"/>
					<path class="st0" d="M110,47.2c-0.1,0.1-0.2,0.2-0.4,0.2c-0.2,0-0.3-0.1-0.4-0.2c-0.1-0.1-0.2-0.2-0.2-0.4v-7.6
						c0-0.2,0.1-0.3,0.2-0.4c0.1-0.1,0.2-0.2,0.4-0.2c0.2,0,0.3,0.1,0.4,0.2c0.1,0.1,0.2,0.2,0.2,0.4v7.6
						C110.2,47,110.2,47.1,110,47.2z"/>
					<path class="st0" d="M118.8,41.5c0.4,0.3,0.8,0.6,1,1.1c0.2,0.5,0.4,1,0.4,1.6c0,0.6-0.1,1.2-0.4,1.6c-0.2,0.5-0.6,0.9-1,1.1
						s-0.9,0.4-1.4,0.4c-0.4,0-0.8-0.1-1.1-0.3c-0.4-0.2-0.6-0.4-0.9-0.7v2.6c0,0.2-0.1,0.3-0.2,0.4c-0.1,0.1-0.2,0.2-0.4,0.2
						c-0.2,0-0.3-0.1-0.4-0.2c-0.1-0.1-0.2-0.2-0.2-0.4v-7.4c0-0.2,0.1-0.3,0.2-0.4c0.1-0.1,0.2-0.2,0.4-0.2c0.2,0,0.3,0.1,0.4,0.2
						c0.1,0.1,0.2,0.2,0.2,0.4v0.3c0.2-0.3,0.5-0.5,0.8-0.7c0.4-0.2,0.7-0.3,1.1-0.3C117.9,41.1,118.4,41.3,118.8,41.5z M118.2,46.2
						c0.3-0.2,0.5-0.4,0.7-0.8c0.2-0.3,0.2-0.7,0.2-1.1c0-0.4-0.1-0.8-0.2-1.1c-0.2-0.3-0.4-0.6-0.7-0.8c-0.3-0.2-0.6-0.3-1-0.3
						c-0.4,0-0.7,0.1-1,0.3c-0.3,0.2-0.5,0.4-0.7,0.8c-0.2,0.3-0.2,0.7-0.2,1.1c0,0.4,0.1,0.8,0.2,1.1c0.2,0.3,0.4,0.6,0.7,0.8
						c0.3,0.2,0.6,0.3,1,0.3C117.6,46.5,117.9,46.4,118.2,46.2z"/>
					<path class="st0" d="M126.2,44.4c-0.1,0.1-0.2,0.1-0.4,0.1h-4.1c0.1,0.6,0.3,1,0.7,1.4c0.4,0.3,0.8,0.5,1.4,0.5
						c0.4,0,0.7-0.1,0.9-0.2c0.2-0.1,0.4-0.3,0.6-0.4c0.1-0.1,0.2-0.1,0.3-0.1c0.1,0,0.2,0,0.3,0.1c0.1,0.1,0.1,0.2,0.1,0.3
						c0,0.2-0.1,0.3-0.2,0.4c-0.2,0.2-0.5,0.4-0.9,0.6c-0.4,0.2-0.8,0.2-1.1,0.2c-0.6,0-1.2-0.1-1.7-0.4c-0.5-0.3-0.9-0.6-1.1-1.1
						c-0.3-0.5-0.4-1-0.4-1.6c0-0.7,0.1-1.2,0.4-1.7c0.3-0.5,0.6-0.9,1.1-1.1c0.4-0.3,0.9-0.4,1.4-0.4c0.5,0,1,0.1,1.4,0.4
						c0.4,0.3,0.8,0.6,1.1,1.1c0.3,0.5,0.4,1,0.4,1.5C126.4,44.2,126.3,44.3,126.2,44.4z M122.4,42.5c-0.3,0.2-0.5,0.6-0.6,1.1h3.5
						v-0.1c0-0.4-0.2-0.8-0.6-1c-0.3-0.3-0.7-0.4-1.1-0.4C123.1,42.1,122.7,42.3,122.4,42.5z"/>
					<path class="st0" d="M128.9,42.3v3.5c0,0.4,0.2,0.6,0.5,0.6c0.1,0,0.1,0,0.2,0c0.1,0,0.2,0,0.2,0c0.1,0,0.2,0,0.3,0.1
						c0.1,0.1,0.1,0.2,0.1,0.3c0,0.2-0.1,0.3-0.3,0.4c-0.2,0.1-0.4,0.2-0.6,0.2c-0.3,0-0.5,0-0.7-0.1c-0.2-0.1-0.4-0.2-0.6-0.4
						c-0.2-0.2-0.3-0.6-0.3-1v-3.5h-0.7c-0.1,0-0.3,0-0.4-0.1c-0.1-0.1-0.1-0.2-0.1-0.4c0-0.1,0-0.3,0.1-0.4
						c0.1-0.1,0.2-0.1,0.4-0.1h0.7v-1c0-0.2,0.1-0.3,0.2-0.4c0.1-0.1,0.2-0.2,0.4-0.2c0.2,0,0.3,0.1,0.4,0.2
						c0.1,0.1,0.2,0.2,0.2,0.4v1h1c0.1,0,0.3,0,0.4,0.1c0.1,0.1,0.1,0.2,0.1,0.4c0,0.1,0,0.3-0.1,0.4c-0.1,0.1-0.2,0.1-0.4,0.1
						H128.9z"/>
					<path class="st0" d="M138.5,41.5c0.4,0.3,0.8,0.6,1,1.1c0.2,0.5,0.4,1,0.4,1.6c0,0.6-0.1,1.2-0.4,1.6c-0.2,0.5-0.6,0.9-1,1.1
						c-0.4,0.3-0.9,0.4-1.4,0.4c-0.4,0-0.8-0.1-1.1-0.3c-0.4-0.2-0.6-0.4-0.9-0.7v2.6c0,0.2-0.1,0.3-0.2,0.4
						c-0.1,0.1-0.2,0.2-0.4,0.2c-0.2,0-0.3-0.1-0.4-0.2c-0.1-0.1-0.2-0.2-0.2-0.4v-7.4c0-0.2,0.1-0.3,0.2-0.4
						c0.1-0.1,0.2-0.2,0.4-0.2c0.2,0,0.3,0.1,0.4,0.2c0.1,0.1,0.2,0.2,0.2,0.4v0.3c0.2-0.3,0.5-0.5,0.8-0.7c0.4-0.2,0.7-0.3,1.1-0.3
						C137.6,41.1,138.1,41.3,138.5,41.5z M137.9,46.2c0.3-0.2,0.5-0.4,0.7-0.8c0.2-0.3,0.2-0.7,0.2-1.1c0-0.4-0.1-0.8-0.2-1.1
						c-0.2-0.3-0.4-0.6-0.7-0.8c-0.3-0.2-0.6-0.3-1-0.3c-0.4,0-0.7,0.1-1,0.3c-0.3,0.2-0.5,0.4-0.7,0.8c-0.2,0.3-0.2,0.7-0.2,1.1
						c0,0.4,0.1,0.8,0.2,1.1c0.2,0.3,0.4,0.6,0.7,0.8c0.3,0.2,0.6,0.3,1,0.3C137.3,46.5,137.6,46.4,137.9,46.2z"/>
					<path class="st0" d="M144.3,41.3c0.1,0.1,0.2,0.2,0.2,0.4c0,0.2,0,0.3-0.1,0.4c-0.1,0.1-0.2,0.1-0.4,0.1c-0.1,0-0.2,0-0.3-0.1
						c-0.2-0.1-0.3-0.1-0.4-0.1c-0.2,0-0.5,0.1-0.7,0.3c-0.2,0.2-0.4,0.4-0.6,0.7c-0.1,0.3-0.2,0.6-0.2,1v2.8c0,0.2-0.1,0.3-0.2,0.4
						c-0.1,0.1-0.2,0.2-0.4,0.2c-0.2,0-0.3-0.1-0.4-0.2c-0.1-0.1-0.2-0.2-0.2-0.4v-5c0-0.2,0.1-0.3,0.2-0.4c0.1-0.1,0.2-0.2,0.4-0.2
						c0.2,0,0.3,0.1,0.4,0.2c0.1,0.1,0.2,0.2,0.2,0.4v0.6c0.2-0.4,0.4-0.7,0.8-0.9c0.3-0.2,0.7-0.4,1.2-0.4
						C144,41.1,144.2,41.2,144.3,41.3z"/>
					<path class="st0" d="M150.2,46c-0.3,0.5-0.6,0.9-1.1,1.1c-0.5,0.3-1,0.4-1.6,0.4c-0.6,0-1.1-0.1-1.6-0.4
						c-0.5-0.3-0.8-0.7-1.1-1.1c-0.3-0.5-0.4-1-0.4-1.6c0-0.6,0.1-1.2,0.4-1.7c0.3-0.5,0.6-0.9,1.1-1.1c0.5-0.3,1-0.4,1.6-0.4
						c0.6,0,1.1,0.1,1.6,0.4c0.5,0.3,0.8,0.7,1.1,1.1c0.3,0.5,0.4,1,0.4,1.7C150.7,44.9,150.5,45.5,150.2,46z M149.3,43.2
						c-0.2-0.3-0.4-0.6-0.7-0.8c-0.3-0.2-0.6-0.3-1-0.3c-0.4,0-0.7,0.1-1,0.3c-0.3,0.2-0.5,0.4-0.7,0.8c-0.2,0.3-0.3,0.7-0.3,1.1
						c0,0.4,0.1,0.8,0.3,1.1c0.2,0.3,0.4,0.6,0.7,0.8c0.3,0.2,0.6,0.3,1,0.3c0.4,0,0.7-0.1,1-0.3c0.3-0.2,0.5-0.4,0.7-0.8
						c0.2-0.3,0.3-0.7,0.3-1.1C149.5,43.9,149.4,43.5,149.3,43.2z"/>
					<path class="st0" d="M156.9,38.9c0.1,0.1,0.2,0.2,0.2,0.4v7.6c0,0.2-0.1,0.3-0.2,0.4c-0.1,0.1-0.2,0.2-0.4,0.2
						c-0.2,0-0.3-0.1-0.4-0.2c-0.1-0.1-0.2-0.2-0.2-0.4v-0.3c-0.2,0.3-0.5,0.5-0.8,0.7c-0.4,0.2-0.7,0.3-1.1,0.3
						c-0.5,0-1-0.1-1.4-0.4c-0.4-0.3-0.8-0.7-1-1.1c-0.3-0.5-0.4-1-0.4-1.6c0-0.6,0.1-1.2,0.4-1.6c0.2-0.5,0.6-0.9,1-1.1
						c0.4-0.3,0.9-0.4,1.4-0.4c0.4,0,0.8,0.1,1.1,0.3c0.4,0.2,0.6,0.4,0.9,0.7v-2.8c0-0.2,0.1-0.3,0.2-0.4c0.1-0.1,0.2-0.2,0.4-0.2
						C156.6,38.7,156.8,38.8,156.9,38.9z M155,46.2c0.3-0.2,0.5-0.4,0.7-0.8c0.2-0.3,0.2-0.7,0.2-1.1c0-0.4-0.1-0.8-0.2-1.1
						c-0.2-0.3-0.4-0.6-0.7-0.8c-0.3-0.2-0.6-0.3-1-0.3c-0.4,0-0.7,0.1-1,0.3s-0.5,0.4-0.7,0.8c-0.2,0.3-0.2,0.7-0.2,1.1
						c0,0.4,0.1,0.8,0.2,1.1c0.2,0.3,0.4,0.6,0.7,0.8c0.3,0.2,0.6,0.3,1,0.3C154.4,46.5,154.8,46.4,155,46.2z"/>
					<path class="st0" d="M163.3,41.4c0.1,0.1,0.2,0.2,0.2,0.4v3.1c0,0.8-0.2,1.4-0.7,1.9c-0.4,0.4-1.1,0.7-1.9,0.7
						c-0.8,0-1.4-0.2-1.9-0.7c-0.4-0.4-0.7-1.1-0.7-1.9v-3.1c0-0.2,0.1-0.3,0.2-0.4c0.1-0.1,0.2-0.2,0.4-0.2c0.2,0,0.3,0.1,0.4,0.2
						c0.1,0.1,0.2,0.2,0.2,0.4v3.1c0,1,0.5,1.5,1.4,1.5c0.5,0,0.8-0.1,1.1-0.4c0.3-0.3,0.4-0.6,0.4-1.1v-3.1c0-0.2,0.1-0.3,0.2-0.4
						c0.1-0.1,0.2-0.2,0.4-0.2C163,41.2,163.1,41.3,163.3,41.4z"/>
					<path class="st0" d="M168.6,41.4c0.4,0.2,0.6,0.4,0.6,0.8c0,0.1,0,0.3-0.1,0.4c-0.1,0.1-0.2,0.2-0.3,0.2c-0.1,0-0.2,0-0.2,0
						c-0.1,0-0.1-0.1-0.2-0.2c0,0-0.1-0.1-0.2-0.2c-0.1,0-0.2-0.1-0.4-0.1c-0.2,0-0.3,0-0.5,0c-0.4,0-0.8,0.1-1.1,0.3
						c-0.3,0.2-0.6,0.4-0.7,0.8c-0.2,0.3-0.3,0.7-0.3,1.1c0,0.4,0.1,0.8,0.3,1.1c0.2,0.3,0.4,0.6,0.7,0.8c0.3,0.2,0.7,0.3,1,0.3
						c0.4,0,0.7-0.1,1-0.2c0.1,0,0.1-0.1,0.2-0.2c0.1-0.1,0.1-0.1,0.2-0.1c0.1,0,0.1,0,0.2,0c0.2,0,0.3,0,0.4,0.1
						c0.1,0.1,0.1,0.2,0.1,0.4c0,0.2-0.1,0.3-0.3,0.5c-0.2,0.2-0.5,0.3-0.8,0.4c-0.3,0.1-0.7,0.2-1.1,0.2c-0.6,0-1.1-0.1-1.6-0.4
						c-0.5-0.3-0.8-0.7-1-1.1c-0.2-0.5-0.4-1-0.4-1.6c0-0.6,0.1-1.1,0.4-1.6c0.3-0.5,0.6-0.9,1.1-1.1c0.5-0.3,1-0.4,1.6-0.4
						C167.7,41.1,168.2,41.2,168.6,41.4z"/>
					<path class="st0" d="M171.7,42.3v3.5c0,0.4,0.2,0.6,0.5,0.6c0.1,0,0.1,0,0.2,0c0.1,0,0.2,0,0.2,0c0.1,0,0.2,0,0.3,0.1
						c0.1,0.1,0.1,0.2,0.1,0.3c0,0.2-0.1,0.3-0.3,0.4c-0.2,0.1-0.4,0.2-0.6,0.2c-0.3,0-0.5,0-0.7-0.1c-0.2-0.1-0.4-0.2-0.6-0.4
						c-0.2-0.2-0.3-0.6-0.3-1v-3.5h-0.7c-0.1,0-0.3,0-0.4-0.1c-0.1-0.1-0.1-0.2-0.1-0.4c0-0.1,0-0.3,0.1-0.4
						c0.1-0.1,0.2-0.1,0.4-0.1h0.7v-1c0-0.2,0.1-0.3,0.2-0.4c0.1-0.1,0.2-0.2,0.4-0.2c0.2,0,0.3,0.1,0.4,0.2
						c0.1,0.1,0.2,0.2,0.2,0.4v1h1c0.1,0,0.3,0,0.4,0.1c0.1,0.1,0.1,0.2,0.1,0.4c0,0.1,0,0.3-0.1,0.4c-0.1,0.1-0.2,0.1-0.4,0.1
						H171.7z"/>
					<path class="st0" d="M173.7,46.1c0-0.2,0.1-0.3,0.2-0.4c0.1-0.1,0.2-0.1,0.3-0.1c0.1,0,0.3,0.1,0.4,0.2
						c0.2,0.3,0.5,0.5,0.8,0.6c0.3,0.1,0.6,0.2,1,0.2c0.3,0,0.6-0.1,0.8-0.2c0.2-0.1,0.3-0.3,0.3-0.6c0-0.3-0.1-0.5-0.3-0.6
						c-0.2-0.1-0.6-0.3-1-0.4c-0.4-0.1-0.8-0.2-1.1-0.4c-0.3-0.1-0.5-0.3-0.7-0.6c-0.2-0.2-0.3-0.6-0.3-1c0-0.4,0.1-0.7,0.3-0.9
						c0.2-0.3,0.5-0.5,0.8-0.6c0.3-0.1,0.7-0.2,1.1-0.2c0.4,0,0.7,0.1,1.1,0.2c0.4,0.1,0.7,0.4,0.9,0.6c0.1,0.1,0.1,0.2,0.1,0.3
						c0,0.1-0.1,0.2-0.2,0.4c-0.1,0.1-0.2,0.1-0.3,0.1c-0.1,0-0.3,0-0.3-0.1c-0.2-0.2-0.4-0.3-0.6-0.4c-0.2-0.1-0.5-0.2-0.8-0.2
						c-0.3,0-0.5,0.1-0.8,0.2c-0.2,0.1-0.3,0.3-0.3,0.6c0,0.3,0.1,0.5,0.4,0.6c0.2,0.1,0.6,0.3,1.1,0.4c0.4,0.1,0.8,0.2,1,0.4
						c0.3,0.1,0.5,0.3,0.7,0.6c0.2,0.2,0.3,0.6,0.3,1c0,0.4-0.1,0.7-0.3,1c-0.2,0.3-0.5,0.5-0.8,0.6c-0.3,0.1-0.7,0.2-1.1,0.2
						c-0.5,0-0.9-0.1-1.4-0.3c-0.4-0.2-0.8-0.4-1.1-0.8C173.7,46.3,173.7,46.2,173.7,46.1z"/>
				</g>
			</g>
		</g>
	</g>
	<path class="st0" d="M43.9,34.5c-0.3-0.3-0.7-0.6-1.1-0.7s-0.7-0.3-1.7-0.7c-0.2-0.1-1-0.3-1.4-0.4c-0.2-0.1-1.1-0.3-1.3-0.3
		c0,0,0,0,0,0c0,0.1,0,0.2,0.1,0.3c1,0.3,1.7,0.5,2.8,0.9c0.8,0.3,1.1,0.5,1.7,0.8c0.3,0.2,0.5,0.4,0.7,0.6c0.2,0.3,0,0.5-0.2,0.6
		c-0.4,0.2-0.9,0.4-1.4,0.5c-1.4,0.3-2.9,0.2-4.3,0.1c-1.2-0.1-2.4-0.3-3.6-0.5c-1.3-0.2-2.5-0.5-3.8-0.9c-1.5-0.4-2.9-0.8-4.3-1.3
		c-0.7-0.2-1.4-0.6-2.2-0.9c-0.1-0.1-0.3-0.1-0.3-0.2c0.3,0.1,0.8,0.3,1.2,0.4c1,0.3,2,0.7,3.1,1c1.2,0.3,2.4,0.7,3.6,0.9
		c0.7,0.2,1.3,0.3,2.5,0.5c1.5,0.2,2.4,0.3,2.8,0.3c0.9,0,1.4,0.1,2.1,0.1c0.8,0,1.5,0,2-0.2c0.5-0.2,0.6-0.3,0.6-0.6
		c0-0.2-0.3-0.5-0.5-0.6c-0.2-0.1-0.4-0.2-0.8-0.4c-0.5-0.2-1.3-0.5-1.6-0.5c0,0,0.1,0.6,0.1,1c0,0.3,0,0.7,0,0.9
		c-0.2,0-0.4,0-0.7,0c0-0.4,0-1.3,0-1.9c-0.1-0.8-0.4-1.7-0.4-1.7s2.1-3.1,2.1-6.1c0-3.1-0.8-6.2-1.8-6c-1,0.2-0.6,1.2-0.4,2.3
		c0.1,1.1,0.2,3.2-0.2,4.6c-0.4,1.5-1.3,2.6-1.3,2.6s-0.2-0.1-0.4-0.1c-0.2-0.1-0.4-0.1-0.4-0.1s-0.1-1.4-0.3-2.3
		c0-0.1,0-0.2-0.1-0.3c0-0.3-0.1-0.6-0.1-0.8c-0.2-0.9-0.7-1.1-0.9-2.4c0,0,0,0,0,0c0-0.7-0.1-1.5-0.2-2.4c-0.2-1.9-1.6-3.8-1.8-4.4
		c0-0.1,0-0.3,0-0.6c0.2,0.1,0.3,0.1,0.5,0.1c0.9-0.1,1.3-1,1.7-1.6c0.4-0.6,0.7-0.9,1.1-2.8c0.3-2,0.8-2.9,0.4-4
		c-0.3-1.2-1.3-1.7-1.8-2.5c-0.5-0.8-1.1-2.2-1.9-2.3c-0.8-0.1-1.4,0-1.8-0.3c-0.4-0.2-1.1-1.5-2.1-1.8c-1-0.2-1.6,0-2.1,0
		c-0.5,0-1.3-0.3-2.2-0.3s-2.4,0.6-3,1.2C20.1,1.8,20,2,19.6,2c-0.3,0-1.6,0.3-2.1,1.1C17.1,4,16.7,4.3,16,4.8
		c-0.8,0.6-1.8,0.5-1.7,2.9c0.1,2.4-0.1,1.5-0.3,3c-0.2,1.6,0.9,2,1.2,2.5c0.3,0.5,0.2,1.9,1.3,1.9c1.1,0,2.6-2.1,2.9-3.9
		c0.1-0.5,0.2-0.9,0.3-1.2c0-0.5-0.1-1-0.1-1.3c-0.1-0.4-0.1-0.8,0-1.8c0.1-1,0.3-1.3,0.5-1.5c0.1-0.2,0.3,0,0.1,0.3
		c-0.2,0.3-0.3,1.4-0.3,1.9c0,0.7,0.3,1.2,0.4,1.9c0,0,0,0,0,0.1c0.1,0.2,0.1,0.6,0.1,1c-0.1,1.2,0.5,1.9,0.7,2.1
		c0.1,0.1,0.2,0.5,0.2,1c0,0.3,0.1,1,0.4,1.2c0.3,0.2,0.6,0.4,0.8,0.6c0.3,0.3,0.3,0.4,0.7,0.7c0.6,0.4,0.9,0,1.1,0.2
		c0.3,0.4,0.6,1.1,1.3,1.3c0.7,0.2,1.1-0.1,1.3-0.2c0.2,0,1,0.1,1.2-0.2c0.3-0.3,0.5-0.8,0.5-1.2c0-0.4,0.2-0.3,0.5-0.5
		c0.2-0.2,0.3-0.4,0.5-0.7c0.1-0.1,0.3-0.4,0.4-0.5c0.1-0.2,0.2-0.3,0.2-0.3c0.1,0.1,0.3,0.3,0.4,0.5c-0.3,0.7-1.1,1.2-1.3,1.9
		c-0.3,0.8-0.9,2.5-0.7,3.4c0.1,0.9,1.6,1.5,2,2.3c0.4,0.9-0.5,1.9-1.1,2.6s-1.3,2-1.2,3.2s0.6,2.1,0.1,2.7c-0.6,0.8-0.9,2-1,2.4
		C27,33.1,26.8,33,26.6,33c-0.3-0.1-0.6-0.2-0.9-0.3c0.1-0.6,0.3-2.7,0.9-4.5c0.3-1,0.8-3.7,0.6-4.8c-0.1-0.8-0.5-0.3-0.5,0.4
		c0,0.7-0.7,3-0.9,3.5c-0.2,0.5-0.4,1.3-1,1.9c-0.5,0.5-1.3,1-2.6,0.3c-1.3-0.7-1.4-1.9-1.8-2.5c-0.3-0.5-0.8-1.5-0.8-2.6
		c0-1.1,0.4-2.2,0.4-2.5c0.1-0.3-0.2-0.4-0.3-0.2c0,0-1.3,3-1.5,4.7C18.1,27.5,18,28.7,18,29c-0.9-0.4-1.8-0.9-2.6-1.2
		c0-0.1,0-0.4,0-0.7c0-0.9,0.1-1.7,0.5-2.3c0.4-0.6,2.3-2,2.6-3.1c0.3-1.2-0.6-2.6-0.3-3.5c0.3-0.9,1.5-0.5,2.1-1
		c0.6-0.5,0.5-1.3,0.6-1.8c0-0.2,0-0.7-0.1-1.1c0,0,0,0,0-0.1c0-0.3-0.2-0.9-0.3-1.2c0-0.1-0.1,0-0.2,0.1c-0.2,0.6-1.8,1.8-2.8,3.3
		c-1.1,1.6-1.6,2.7-1.5,4.1c0.1,1.3-1.2,2.9-1.4,4.1c-0.1,0.6-0.2,1.5-0.1,2.5c0,0.2,0,0.3,0,0.4c-0.2-0.1-0.4-0.2-0.6-0.2
		c0,0-0.1,0-0.1,0c-0.1-0.1-0.1-0.1-0.1-0.4c0.1-0.3,0.2-0.6,0.2-1c0-0.2,0-0.5-0.1-0.6c-0.4-0.4-0.8-0.8-1.2-1.2
		c-0.1-0.1-0.2-0.1-0.2-0.1c-0.6,0-1.2-0.1-1.8-0.1c-0.3,0-0.3,0.1-0.4,0.3c-0.1,0.8-0.3,1.5-0.4,2.3c0,0.2-0.1,0.4-0.3,0.4
		c-0.6,0.2-1.2,0.4-1.8,0.5c-1.1,0.2-2.1,0.5-3.1,1c-0.2,0.1-0.5,0.2-0.7,0.3c-0.1,0.1-0.5,0.3-0.5,0.3c-1.1,0.7-2.6,1.5-3.4,2.6
		C0,31.5,0,31.6,0,31.8c0.1,0.6,0.2,1.2,0.3,1.8c0,0.2,0,0.3,0.3,0.3c0.1,0,0.1,0.1,0.2,0.2c0.2,0.6,0.3,1.3,0.5,1.9
		c0,0.2,0.1,0.2,0.3,0.2c0.1,0,0.2,0.1,0.2,0.1C1.9,37,2,37.4,2.2,38c0,0,0,0.1,0,0.1c0.1,0.2,0.3,0.1,0.5,0.3
		c0.1,0.1,0.2,0.1,0.2,0.2c0,0,0.1,0.1,0.1,0.1c0.9,0.2,2.3,0.4,3.2,0.7c1,0.3,2,0.7,3.1,1c0.9,0.3,1.8,0.4,2.8,0.6
		c0.3,0.1,0.5,0.1,0.8,0.1c0,0-0.9,0.1-1.4,0.1c-1.3,0-2.4-0.3-3.6-0.7c-1.2-0.4-3.4-0.8-4.6-1c1.2,1.5,2.1,2.3,3.4,3.3
		c4.3-0.1,7.1-0.1,8.5-0.8c1.1-0.5,2.5-1.2,4.2-1.4c0.5,0,1,0,1.6,0.1c1.9,0.2,3.6,1.3,4.7,2c-1.3-0.6-2.9-1.2-4.4-1.4
		c-2.7-0.4-3.3,1-6,2.4c-1.6,0.8-3.8,0.8-5.5,1.3c3.5,2,7.5,3.4,12.6,3.4c5.4,0,10.3-1.6,14.4-4.5c0,0,0,0,0,0
		c-1,0.1-3.7,0.9-5.7,0.4c-1.1-0.3-2.5-0.8-3.2-1.3c1.1,0.3,3.9,0.7,5.2,0.6c1.3,0,3.2-0.2,4.7-0.4c0,0,0.1,0,0.2-0.1
		c0.6-0.5,1.2-0.9,1.8-1.5c0.1-0.1,0.4,0,0.5-0.2c0,0,0.1-0.2,0.2-0.3c0,0,0.2-0.6,0.3-0.8c0.1-0.3,0.3-0.4,0.6-0.6
		c0.2-0.1,0.3-0.2,0.4-0.4c0.2-0.4,0.3-0.7,0.5-1.1c0.1-0.1,0.2-0.2,0.3-0.2c0.4-0.1,0.6-0.5,0.7-0.8c0.2-0.6,0.5-1.1,0.7-1.7
		C44.2,35.3,44.2,34.8,43.9,34.5z M27.8,7c0.1-0.1,0.2-0.2,0.3-0.3c0.1-0.1,0.4-0.2,0.7-0.1c0.3,0,0.5,0.1,0.8,0.3
		c0.3,0.2,0.4,0.5,0.5,0.6c0.1,0.1-0.1,0.2-0.1,0.1c-0.1-0.1-0.2-0.2-0.4-0.4c-0.2-0.2-0.5-0.3-0.8-0.3c-0.3,0-0.4,0.1-0.6,0.1
		c-0.2,0.1-0.4,0.3-0.4,0.3c0,0-0.1,0-0.1,0C27.7,7.2,27.8,7.1,27.8,7z M29.7,7.5c0.2,0.2,0.2,0.5,0.1,0.6c-0.1,0.1-0.4,0.2-0.7,0.2
		c-0.3,0-0.5-0.1-0.6-0.1c-0.1-0.1-0.5-0.2-0.5-0.4c0-0.1,0.1-0.3,0.2-0.4c0,0.2,0.2,0.6,0.7,0.6C29.3,8,29.6,7.7,29.7,7.5z
		 M28.9,7.2C28.9,7.1,29,7,29.1,7c0.1,0,0.2,0.1,0.2,0.2c0,0.1-0.1,0.2-0.2,0.2C29,7.4,28.9,7.3,28.9,7.2z M21.8,7.6
		c0-0.1,0.2-0.3,0.3-0.4c0.1-0.1,0.4-0.1,0.8-0.1c0.4,0,0.6,0.1,0.8,0.2s0.4,0.4,0.4,0.4c0.1,0.1,0,0.2-0.1,0.1
		c-0.1-0.1-0.2-0.2-0.3-0.2c-0.1-0.1-0.4-0.1-0.7-0.2c-0.3,0-0.5,0-0.7,0.1c-0.2,0-0.4,0.2-0.5,0.3C21.9,7.8,21.7,7.7,21.8,7.6z
		 M23.7,7.9C23.8,8,24,8.1,24,8.2c0,0.2-0.2,0.3-0.3,0.3c-0.1,0.1-0.3,0.2-0.7,0.2c-0.4,0-0.6-0.1-0.8-0.2c-0.2-0.1-0.3-0.3-0.3-0.5
		c0-0.1,0-0.2,0.2-0.2c0,0,0,0,0,0c0,0.2,0.2,0.6,0.9,0.6C23.6,8.5,23.7,8.1,23.7,7.9z M22.9,7.7c0-0.1,0.1-0.2,0.2-0.2
		c0.1,0,0.2,0.1,0.2,0.2c0,0.1-0.1,0.2-0.2,0.2C23,7.9,22.9,7.8,22.9,7.7z M28.2,16.3c0,0.3-0.1,0.7-0.4,0.8c0,0-0.1,0.1-0.6,0.1
		c-0.1,0-0.1,0-0.2,0c0,0-0.1,0-0.1,0l-0.1,0c-0.2,0-0.3,0.1-0.4,0.1c-0.1,0.1-0.3,0.1-0.5,0.1c0,0,0,0,0,0c-0.1,0-0.2,0-0.3,0
		c-0.3-0.1-0.5-0.4-0.7-0.8c-0.1-0.1-0.1-0.3-0.2-0.4c0.1-0.1,0.3-0.1,0.5-0.2c0.1,0.2,0.2,0.3,0.2,0.4c0.3,0.3,0.5,0.4,1,0.3
		c0.4-0.1,1.2-0.2,1.4-0.9c0.1,0,0.3,0.1,0.3,0.1c0,0,0,0,0,0.1C28.2,16,28.2,16.2,28.2,16.3z M26.5,16.1c0.1,0,0-0.3,0.2-0.6
		c0,0,0.1-0.1,0.1-0.1c0.2,0.1,0.5,0.2,0.7,0.3c0,0,0,0.1,0,0.1c-0.1,0.3-0.5,0.5-1,0.5c-0.2,0-0.4,0.1-0.7,0
		c-0.3-0.1-0.4-0.4-0.2-0.6c0.1-0.2,0.4-0.3,0.6-0.1C26.5,15.8,26.5,16.2,26.5,16.1z M25.4,12.4c0-0.3,0.5-0.5,1.1-0.5
		c0.6,0,1.1,0.1,1.1,0.4c0,0.2-0.6,0-1.1,0C25.9,12.4,25.4,12.7,25.4,12.4z M29.6,10.9c-0.1,0.4-0.2,1-0.2,1.3c0,0.3,0,0.5,0.1,0.7
		c0.1,0.4,0.4,0.7,0.4,0.7c-0.1,0.7-0.6,0.9-0.6,1.1c-0.1,0.1-0.1,0.6-0.5,0.8c-0.3,0.2-1.5-0.2-2-0.4c0,0,0,0,0,0
		c-0.2-0.1-0.2-0.3-0.2-0.8c0-0.4,0.2-0.7,0.4-0.8c0.5-0.2,0.9-0.6,1-1.1c0.1-0.7-0.3-1-1.4-1c-1.1,0-1.7,0.4-1.6,1
		c0.1,0.5,0.4,0.8,0.9,1c0.3,0.1,0.2,0.3,0.3,1c0,0.4-0.1,0.6-0.2,0.7c-0.3,0.2-0.8,0.5-1.6,0.7c-1,0.4-1.2-0.3-1.8-0.8
		c-0.6-0.4-0.8-0.6-0.9-1.6c0-1.1,1.1-2,1.7-2.3c0.6-0.3,1.8-1.9,1.9-2.6c0.1-0.6-0.1-1.4-0.5-2.7c-0.3-1.3,0.6-2.2,1.1-2.2
		c0.7,0,1.2,0.8,1.3,1.4c0.1,0.7,0.3,1.4,0,1.8c-0.2,0.3-0.1,0.8,0.1,1.1c0.2,0.3,0.1,0.8,0.1,1.2c0.1,0.4,0.7,0.7,1.1,1.2
		c0.2,0.2,0.4,0.6,0.6,0.8c0.3-0.8,0.8-1.6,1.2-2.1c0.4-0.6,0.5-1.1,0.6-1.8c0.1-0.7-0.7-1.5-0.8-1.8c-0.1-0.3-0.2-0.8,0-0.4
		c0.2,0.4,0.9,1.1,1.1,1.7c0.2,0.5,0.2,1.2-0.2,1.7C30.8,9.1,29.8,10.5,29.6,10.9z M0.7,33.3c-0.1,0.1-0.1,0-0.1,0
		c0-0.1,0-0.1-0.1-0.2c0,0,0,0,0,0c0-0.1-0.2-1.1-0.2-1.2c0,0,0,0,0,0l0,0c0-0.2,0-0.3,0.2-0.5c0.4-0.4,1.4-1.1,2.1-1.5
		c1.6-0.9,3.1-1.7,4.9-2.1c0.8-0.2,1.5-0.4,2.3-0.7c0,0.1,0,0.2,0,0.3c0,0.4-0.1,1.4-0.1,1.7c0,0,0,0,0,0.1c0,0,0,0,0,0
		c-0.1,0.2-0.3,0.3-0.6,0.4c-0.9,0.2-1.9,0.4-2.8,0.7c-1.5,0.4-3.3,1-4.5,2C1.4,32.6,1,33,0.7,33.3z M1.7,35.6c0,0-0.1,0.1-0.1,0.2
		c0,0,0,0-0.1,0c-0.1-0.3-0.2-1-0.3-1.4c-0.1-0.5-0.1-1,0.4-1.5c1-0.9,2.6-1.6,3.8-2c0.9-0.3,1.9-0.4,2.8-0.7
		C8.6,30.2,9,30.1,9.4,30c0.1,0,0.1,0,0.2,0c0,0.1,0,0.1,0,0.1l0,0c0,0,0,0,0,0c0,0,0,0,0,0c0,0.1,0,0.6,0,0.9c0,0.3,0,0.6,0,0.7
		c0,0,0,0,0,0.1c0,0,0,0,0,0c0,0,0,0,0,0c0,0.2-0.2,0.2-0.4,0.2c-1.1,0.2-2.1,0.4-3.2,0.8c-1,0.4-2.5,0.9-3.3,1.7
		C2.4,34.9,2,35.3,1.7,35.6z M2.7,37.6c0,0-0.1,0.1-0.1,0.1c0,0-0.1-0.1-0.1-0.2c0,0,0,0,0,0c0,0,0,0,0,0c0-0.1,0-0.1-0.1-0.2
		c-0.1-0.3-0.3-0.9-0.3-1.1c0,0,0,0,0,0c0,0,0,0,0,0l0,0c-0.1-0.5,0.1-0.7,0.5-1.1c1.6-1.3,3.9-2,5.8-2.4c0.4-0.1,0.8-0.1,1.2-0.2
		c0,0,0,0.1,0,0.1c0,0,0,0,0,0c0,0.1,0.1,0.5,0.1,0.5l0.1,1.2c0,0,0,0,0,0.1l0,0l0,0c0,0,0,0,0,0.1c0,0.1-0.1,0.2-0.2,0.2
		C9.1,34.9,8.5,35,8,35.1C6.2,35.6,4.1,36.4,2.7,37.6z M5.9,38.7c-0.2-0.1-0.4-0.1-0.6-0.2c-0.3-0.1-1.5-0.2-1.8-0.3c0,0,0,0,0,0
		c0,0,0,0,0,0c0,0,0,0,0,0c0,0,0,0,0,0c-0.2-0.1-0.2-0.2-0.2-0.3c0-0.1,0.1-0.3,0.2-0.3c1.2-0.9,3-1.6,4.5-2
		c0.6-0.2,1.3-0.3,1.9-0.5c0.1,0,0.1,0.1,0.1,0.2c0,0.1,0.1,0.5,0.1,1c0,0.4,0.1,0.8,0.1,0.8c0,0.1,0,0.2,0,0.2
		c-0.5,0.1-0.9,0.2-1.3,0.4C8,38,7.3,38.3,6.5,38.7C6.3,38.7,6.2,38.8,5.9,38.7z M9,39.5c-0.1,0.1-0.3,0.1-0.4,0
		c-0.1,0-0.2,0-0.2-0.1c0,0,0,0,0,0c-0.1,0-0.4-0.1-0.7-0.2c0,0-0.1,0-0.1,0c0,0-0.1,0-0.1-0.1c0,0-0.1,0-0.1,0
		c-0.1,0-0.3-0.1-0.5-0.1c1.1-0.6,2.2-0.9,3.4-1.2c0,0,0,0.1,0,0.1l0.1,0.7c0,0,0,0,0,0c0,0.1,0,0.1,0,0.1v0c0,0.1,0,0.2-0.1,0.2
		C9.9,39.1,9.5,39.3,9,39.5z M10.5,40c-0.1,0.1-0.2,0.2-0.5,0.1c-0.2-0.1-0.6-0.2-0.8-0.3c0.4-0.1,0.7-0.3,1.1-0.4
		c0.1,0,0.1,0,0.2,0.1c0,0,0.1,0.2,0.1,0.3C10.6,39.9,10.5,39.9,10.5,40z M12.4,40.6C12.4,40.6,12.4,40.6,12.4,40.6
		C12.4,40.6,12.4,40.6,12.4,40.6c-0.1,0-0.2,0-0.2,0c-0.3-0.1-0.7-0.2-0.8-0.2c0,0,0,0,0,0c-0.4-0.1-0.4-0.5-0.5-0.8
		c-0.2-0.8-0.3-1.7-0.5-2.5c-0.1-0.6-0.1-1.2-0.2-1.8c-0.1-0.8-0.1-1.6-0.2-2.4c0-0.5,0-0.9,0-1.4c0-1.2,0-2.4,0.1-3.6
		c0.1-1.1,0.3-2.1,0.4-3.1c0-0.2,0.1-0.4,0.1-0.6c0.6,0,1.1,0,1.6,0c-0.9,5.5-0.7,11,0.3,16.5C12.5,40.6,12.5,40.6,12.4,40.6z
		 M14,40.7c0,0-0.1,0.1-0.2,0.1c-0.2,0-0.4,0-0.7,0c-0.1,0-0.2-0.1-0.2-0.2c-0.2-0.8-0.3-1.6-0.4-2.4c-0.1-0.8-0.1-1.5-0.2-2.3
		c-0.1-0.5-0.1-1-0.1-1.4c0-0.5-0.1-1.1-0.1-1.6c0-1.5,0-2.9,0.1-4.4c0-1,0.2-2,0.3-3c0-0.3,0.1-0.6,0.1-0.9
		c0.1,0.1,0.2,0.2,0.2,0.2c0.2,0.2,0.4,0.3,0.6,0.5c0.2,0.2,0.3,0.3,0.3,0.6c-0.1,0.4-0.2,0.8-0.2,1.3c0,0-0.1,0-0.1,0
		c-0.1,0-0.2,0-0.2,0.1c-0.2,0.7-0.4,1.4-0.6,2.1c0,0.2-0.1,0.3-0.1,0.5c0,0.2,0.1,0.4,0.3,0.4c0.4,0.2,0.4,0.2,0.3,0.6
		c-0.1,0.6-0.3,1.1-0.4,1.7c0,0.2,0,0.4,0.2,0.5c0.2,0.1,0.3,0.3,0.5,0.4c-0.2,0.8-0.3,1.6-0.5,2.3c-0.1,0.3,0.1,0.4,0.3,0.5
		c0.1,0,0.1,0,0.2,0.1c0.3,0.2,0.4,0.5,0.3,0.9c-0.1,0.6-0.2,1.3-0.2,1.9c0,0.1,0.2,0.3,0.4,0.4c0.1,0.1,0.3,0.2,0.3,0.3
		C14.1,40.1,14.1,40.4,14,40.7z M15.7,40.3c0,0-0.1,0.1-0.1,0.1c-0.2,0.1-0.4,0.2-0.7,0.2c0,0,0,0-0.1,0c-0.2,0.1-0.4,0.1-0.5-0.1
		c0-0.3,0-0.6,0.1-0.6c0.1,0,0.7,0.1,0.9,0.2C15.6,40.2,15.8,40.2,15.7,40.3z M33.7,42.1c-0.3,0-0.4,0.1-0.6,0.1
		c-1.2,0-2.5,0.1-3.7,0.1c-1.3,0-2.6,0-3.8-0.6c-0.1-0.1-0.2-0.1-0.3-0.1c-1-0.6-2.3-1.2-3.7-1.5c-2-0.5-3.4-0.3-4.6,0
		c-0.5-0.1-1.2-0.3-1.7-0.5c-0.4-0.1-0.8-0.2-1.1-0.3c-0.1,0-0.3-0.1-0.3-0.2c0-0.2,0-0.4,0-0.7c0,0,0,0,0,0c0-0.4,0.1-1.1,0.2-1.4
		c0,0,0,0,0-0.1c0,0,0-0.1,0-0.1c0,0,0,0,0,0c0,0,0,0,0,0c0,0,0,0,0,0c0,0,0,0,0,0c0-0.1,0.1-0.2,0.2-0.2c0.1,0,0.3,0,0.4,0.1
		c0,0,0.1,0,0.2,0.1c0,0,0,0,0,0c0,0,0.1,0,0.1,0c0.9,0.3,2.8,1,4.5,1.7c0,0,0,0,0,0c0.1,0,0.2,0.1,0.3,0.1c0.5,0.2,1.5,0.6,2.8,1
		c0.4,0.1,0.7,0.2,0.8,0.2c1,0.3,1.6,0.5,2.6,0.7c1.2,0.3,2.4,0.5,3.5,0.7c1.1,0.2,2.3,0.4,3.4,0.5c0.3,0,0.9,0.1,1.1,0.1
		C34.1,42,33.9,42.1,33.7,42.1z M40.2,41c-0.1,0.2-0.2,0.3-0.4,0.3c-0.3,0.1-0.6,0.1-1,0.1c-0.8,0.1-1.6,0.1-2.4,0.2
		c-0.9,0-1.8,0-2.7-0.1c-1.4-0.2-2.9-0.4-4.3-0.6c-1.2-0.2-2.4-0.5-3.6-0.8c-1.5-0.4-2.9-0.8-4.3-1.3c-0.5-0.2-1.1-0.4-1.7-0.6
		c-2.1-0.8-3.9-1.5-4.3-1.6c0,0,0,0,0,0c-0.3-0.1-0.6-0.3-0.9-0.4c-0.3-0.1-0.6-0.2-1-0.3c-0.4-0.1-0.5-0.2-0.5-0.4c0,0,0,0,0,0
		c0-0.1,0-0.5,0.1-0.8c0-0.2,0.2-0.6,0.2-0.8c0,0,0,0,0,0c0-0.1,0.1-0.2,0.1-0.2c0,0,0,0,0,0l0,0c0,0,0-0.1,0-0.1
		c0.1-0.1,0.2-0.2,0.3-0.1c1,0.4,2.1,0.9,3.1,1.3c1.6,0.7,3.2,1.4,4.8,2.1c1.1,0.5,2.3,0.9,3.4,1.3c0.8,0.3,1.7,0.5,2.5,0.8
		c0.5,0.2,1.1,0.3,1.6,0.4c1.1,0.2,2.2,0.5,3.3,0.7c2.5,0.4,4.8,0.4,5.7,0.3c0.9,0,1.4-0.1,2-0.2C40.4,40.5,40.2,40.9,40.2,41z
		 M41.7,38.5c-0.1,0.2-0.2,0.7-0.4,1c0,0-0.2,0.2-0.4,0.2C39.8,40,38.7,40,37.6,40c-0.8,0-1.6,0-2.5,0c-0.9-0.1-1.8-0.2-2.6-0.3
		c-1.1-0.2-2.3-0.4-3.4-0.6c-1.7-0.4-3.4-0.9-5.1-1.6c-1.6-0.7-3.2-1.4-4.7-2c-1.1-0.5-2.2-0.9-3.3-1.4c-0.7-0.3-1.4-0.6-2.2-0.9
		c-0.2-0.1-0.5-0.1-0.7-0.2c-0.2-0.1-0.3-0.1-0.3-0.3h0c0,0,0,0,0,0c0,0,0,0,0,0c0-0.1,0.1-0.4,0.2-0.7c0.1-0.4,0.2-0.7,0.3-0.9
		c0,0,0,0,0,0c0,0,0,0,0,0l0,0c0.1-0.2,0.3-0.2,0.5-0.1c0.6,0.3,1.2,0.4,1.8,0.7c1,0.4,1.9,0.8,2.9,1.3c2.4,1.2,4.8,2.4,7.3,3.3
		c1.1,0.4,2.1,0.8,3.2,1.1c1.3,0.4,2.6,0.6,3.9,0.9c1.4,0.3,2.8,0.4,4.2,0.5c1.4,0.1,2.7,0,4-0.2c0.1,0,0.4,0,0.5-0.1
		C41.8,38.4,41.8,38.5,41.7,38.5L41.7,38.5z M43.2,36.4c-0.1,0.3-0.3,0.9-0.5,1c0,0,0,0,0,0c-0.2,0.2-0.4,0.3-0.8,0.4
		c-1.8,0.3-3.6,0.4-5.4,0.3c-0.8-0.1-1.6-0.2-2.4-0.3c-1.3-0.1-2.5-0.4-3.7-0.7c-1.8-0.4-3.6-1-5.4-1.7c-1.4-0.5-2.7-1.2-4.1-1.8
		c-1.5-0.7-2.9-1.5-4.3-2.2c-1.2-0.6-2.4-1-3.6-1.5c-0.1-0.1-0.2-0.2-0.3-0.3c0,0,0-0.1,0-0.2l0,0c0,0,0,0,0-0.1
		c0-0.1,0.1-0.3,0.1-0.5c0.1-0.2,0.2-0.8,0.3-1.1c0,0,0,0,0-0.1c0,0,0,0,0,0c0,0,0,0,0,0c0,0,0,0,0,0c0,0,0,0,0,0l0,0
		c0-0.1,0.1-0.2,0.2-0.1c0.3,0.1,0.7,0.2,1,0.3c1,0.4,2.1,0.9,3.1,1.4c1,0.5,2,1.1,3,1.7c1.4,0.9,2.8,1.7,4.4,2.3
		c1.6,0.7,3.2,1.2,4.9,1.7c0.8,0.2,1.6,0.5,2.4,0.6c1.1,0.2,2.2,0.5,3.2,0.6c1.4,0.2,2.7,0.3,4.1,0.3c1.1,0,2.1-0.1,3.2-0.3
		c0.1,0,0.3-0.1,0.5-0.2C43.3,36.2,43.2,36.4,43.2,36.4z"/>
	<g>
		<g>
			<path class="st0" d="M178.7,15.9v0.2h-0.4v1h-0.2v-1h-0.4v-0.2H178.7z"/>
			<path class="st0" d="M179.6,15.9h0.4v1.2h-0.2v-0.8c0,0,0-0.1,0-0.1c0,0,0-0.1,0-0.1l-0.2,1h-0.2l-0.2-1c0,0,0,0.1,0,0.1
				c0,0,0,0.1,0,0.1v0.8h-0.2v-1.2h0.4l0.2,0.9L179.6,15.9z"/>
		</g>
	</g>
</g>
</svg>
