<svg xmlns="http://www.w3.org/2000/svg" xmlnsXlink="http://www.w3.org/1999/xlink" width="205.9" height="56.031"
    xmlnsV="https://vecta.io/nano">
    <g fill="#100f0d">
        <path
            d="M64.572 38.846v8.228H63.53v-8.228h-2.187v-.937h5.52v.937zm2.807-1.874h1.041v5a2.25 2.25 0 0 1 1.666-.833c.652.014 1.264.319 1.666.833a2.49 2.49 0 0 1 .312 1.562v3.538h-1.036v-3.539a1.37 1.37 0 0 0-.312-1.041 1.32 1.32 0 0 0-.937-.42 1.49 1.49 0 0 0-1.041.417c-.329.45-.478 1.008-.417 1.562v3.021h-1.042v-10.1zm11.878 8.644a5.7 5.7 0 0 1-.729.937 2.51 2.51 0 0 1-1.875.729 2.73 2.73 0 0 1-2.812-3.02 2.79 2.79 0 0 1 2.812-3.02 2.6 2.6 0 0 1 2.188 1.041 4.52 4.52 0 0 1 .521 2.187h-4.48a1.88 1.88 0 0 0 .475 1.357c.332.371.798.595 1.296.622a1.42 1.42 0 0 0 1.146-.417 1.62 1.62 0 0 0 .625-.833zm-1.041-2.083a1.68 1.68 0 0 0-3.333 0zm8.539-5.624c.75-.075 1.498.15 2.083.625.562.455.872 1.153.833 1.875a2.02 2.02 0 0 1-.937 1.771 2.37 2.37 0 0 1 1.77 2.291 2.58 2.58 0 0 1-.937 1.979 3.1 3.1 0 0 1-2.187.625h-2.291v-9.166zm-.625 3.958h.729c.604.075 1.198-.205 1.524-.72s.326-1.171 0-1.685-.919-.795-1.524-.72h-.833v3.124zm0 4.27h1.146a1.99 1.99 0 0 0 1.562-.417c.367-.317.592-.767.625-1.25a1.45 1.45 0 0 0-.833-1.354c-.482-.246-1.023-.354-1.562-.312h-1.042v3.333zm11.457-.521a5.7 5.7 0 0 1-.729.937 2.51 2.51 0 0 1-1.875.729 2.73 2.73 0 0 1-2.812-3.02 2.79 2.79 0 0 1 2.812-3.02 2.6 2.6 0 0 1 2.188 1.041 4.52 4.52 0 0 1 .521 2.187h-4.48c-.028.497.143.985.475 1.356a1.88 1.88 0 0 0 1.295.623c.425.04.846-.113 1.146-.417a1.62 1.62 0 0 0 .625-.833zm-.937-2.083a1.68 1.68 0 0 0-3.333 0zm5.311-.833c-.118-.363-.451-.613-.833-.625a.69.69 0 0 0-.729.625c0 .417.312.521.937.833.539.172 1.036.456 1.458.833a1.37 1.37 0 0 1 .312 1.041 1.78 1.78 0 0 1-1.979 1.875 1.96 1.96 0 0 1-1.978-1.458l.833-.312c.135.53.6.91 1.146.937a.93.93 0 0 0 .937-.937c0-.521-.417-.729-.937-.937a3.01 3.01 0 0 1-1.354-.833 1.39 1.39 0 0 1-.312-.833 1.5 1.5 0 0 1 1.666-1.563c.684-.003 1.301.409 1.562 1.041zm3.957-.417v4.791h-1.041v-4.791h-.625v-.937h.625v-2.083h1.041v2.083h1.041v.937zm6.457-3.853a.73.73 0 1 1-.729.729.71.71 0 0 1 .729-.729zm.521 2.916v5.728h-1.041v-5.728z">
        </path>
        <use xlinkHref="#B"></use>
        <path
            d="M125.602 47.075l1.562-9.686 3.541 7.811 3.645-7.811 1.458 9.686h-1.041l-.833-6.353-3.125 6.767-3.124-6.77-.937 6.353zm12.081-2.813a3.02 3.02 0 1 1 3.02 3.02 2.96 2.96 0 0 1-3.02-3.02zm.937 0a1.98 1.98 0 0 0 2.995 1.79 1.98 1.98 0 0 0 .963-1.79c.061-.56-.121-1.12-.499-1.538a1.97 1.97 0 0 0-1.48-.649 2.03 2.03 0 0 0-1.979 2.187zm11.457-7.29h1.041v10.1h-1.041v-.833c-.47.613-1.207.962-1.979.937a2.79 2.79 0 0 1-2.812-3.02 2.79 2.79 0 0 1 2.812-3.02 2.52 2.52 0 0 1 1.979.937zm-3.749 7.186a1.9 1.9 0 1 0 3.749 0c.076-.717-.264-1.415-.875-1.797s-1.387-.382-1.999 0-.951 1.08-.875 1.797zm12.081 1.458a5.7 5.7 0 0 1-.729.937 2.51 2.51 0 0 1-1.875.729 2.73 2.73 0 0 1-2.812-3.02 2.79 2.79 0 0 1 2.812-3.02 2.6 2.6 0 0 1 2.187 1.041 4.52 4.52 0 0 1 .521 2.187h-4.478a1.88 1.88 0 0 0 .475 1.357c.332.371.798.595 1.296.622a1.42 1.42 0 0 0 1.146-.417 1.62 1.62 0 0 0 .625-.833zm-.937-2.083a1.68 1.68 0 0 0-3.333 0zm2.915-2.191h1.041v.625a1.7 1.7 0 0 1 1.25-.729 1.96 1.96 0 0 1 .833.208l-.521.937a1.48 1.48 0 0 0-.625-.208 1.55 1.55 0 0 0-.833.312c-.208.208-.312.625-.312 1.562v3.02h-1.041v-5.727z">
        </path>
        <use xlinkHref="#B" x="49.679"></use>
        <path
            d="M176.634 37.909v8.228h2.5v.937h-3.541v-9.165zm4.583.521a.73.73 0 0 1 .729.729.73.73 0 0 1-.729.729.73.73 0 0 1-.729-.729c.026-.391.338-.703.729-.729zm.521 2.916v5.728h-1.041v-5.728zm2.604 0l1.666 3.853 1.666-3.853h1.146l-2.812 6.145-2.812-6.145zm6.457-2.916a.73.73 0 0 1 .729.729.73.73 0 0 1-.729.729.73.73 0 0 1-.729-.729.71.71 0 0 1 .729-.729zm.521 2.916v5.728h-1.042v-5.728zm2.286 0h1.042v.625a2.25 2.25 0 0 1 1.666-.833c.652.014 1.264.319 1.666.833a2.49 2.49 0 0 1 .313 1.562v3.541h-1.041v-3.536a1.37 1.37 0 0 0-.313-1.041 1.32 1.32 0 0 0-.937-.417 1.49 1.49 0 0 0-1.041.417c-.329.45-.478 1.008-.417 1.562v3.02h-1.038v-5.733zm11.253-.004h1.041v5.624a4.04 4.04 0 0 1-.521 2.291 2.69 2.69 0 0 1-2.291 1.041 3.51 3.51 0 0 1-2.083-.729 2.41 2.41 0 0 1-.729-1.875h.937c-.011.421.138.83.417 1.146a1.87 1.87 0 0 0 1.354.521 1.63 1.63 0 0 0 1.562-.833 2.48 2.48 0 0 0 .312-1.458v-.828c-.47.613-1.207.962-1.979.937a2.85 2.85 0 0 1-1.979-.729 3.13 3.13 0 0 1-.833-2.291 2.86 2.86 0 0 1 .833-2.187c.527-.512 1.246-.777 1.979-.729a2.42 2.42 0 0 1 1.979.937zm-3.124 1.25a2.17 2.17 0 0 0-.625 1.562c-.03.618.196 1.22.625 1.666a1.76 1.76 0 0 0 2.5 0 2.2 2.2 0 0 0 .625-1.666c.036-.588-.193-1.161-.625-1.562a1.92 1.92 0 0 0-1.25-.521 2.28 2.28 0 0 0-1.251.525z">
        </path>
    </g>
    <path
        d="M64.155 15.83v12.185h4.582v2.5h-7.394V15.83zm10.727 0v14.685h-2.916V15.83zm12.185 6.77h6.77v.208c0 1.041-.1 4.062-2.187 6.041-1.388 1.35-3.272 2.066-5.206 1.979a7.1 7.1 0 0 1-5.312-1.979 7.9 7.9 0 0 1-2.188-5.624 7.13 7.13 0 0 1 2.187-5.416c1.539-1.545 3.653-2.375 5.832-2.291a8.17 8.17 0 0 1 3.437.729 6.73 6.73 0 0 1 2.708 2.708l-2.5 1.354a4.06 4.06 0 0 0-1.77-1.771 4.67 4.67 0 0 0-2.083-.417 5.38 5.38 0 0 0-3.437 1.25 5.43 5.43 0 0 0-1.458 3.853c-.053 1.398.474 2.755 1.458 3.749a4.43 4.43 0 0 0 3.229 1.25 5.89 5.89 0 0 0 2.916-.833 3.33 3.33 0 0 0 1.354-2.291h-3.75v-2.5zm13.54-1.146h6.249v-5.728h2.916v14.685h-2.916v-6.457h-6.249v6.561h-2.916V15.826h2.916zm18.434-3.228v12.185h-2.916V18.226h-3.333v-2.5h9.477v2.5zm9.269-2.396v14.685h-2.916V15.83zm4.687 14.685V15.83h1.979l8.957 9.79v-9.79h2.916v14.685h-2.083l-8.957-9.79v9.79zM158.93 22.6h6.77v.208c0 1.041-.1 4.062-2.187 6.041-1.388 1.35-3.273 2.066-5.207 1.979a7.1 7.1 0 0 1-5.312-1.979 7.9 7.9 0 0 1-2.187-5.624 7.13 7.13 0 0 1 2.187-5.416c1.539-1.545 3.653-2.375 5.832-2.291a8.17 8.17 0 0 1 3.437.729 6.73 6.73 0 0 1 2.708 2.708l-2.5 1.354a4.06 4.06 0 0 0-1.771-1.771 4.67 4.67 0 0 0-2.083-.417 5.38 5.38 0 0 0-3.437 1.25 5.43 5.43 0 0 0-1.458 3.853c-.053 1.398.474 2.755 1.458 3.749a4.43 4.43 0 0 0 3.229 1.25 5.89 5.89 0 0 0 2.916-.833 3.33 3.33 0 0 0 1.354-2.291h-3.749zM33.119 36.66L18.538 15.83h12.5l7.6 10.936 7.29-10.936h7.29a28.007 28.007 0 1 0-25.2 40.2 27.348 27.348 0 0 0 5.1-.521zm10.415 0v14.58a27.83 27.83 0 0 0 12.394-23.225c.003-2.46-.312-4.91-.937-7.29z"
        fill="#e70000"></path>
    <path
        d="M53.219 15.83h-7.29l-7.291 10.936-7.6-10.936h-12.5l14.477 20.934v18.85c3.759-.7 7.339-2.152 10.523-4.27v-14.58L54.99 20.83c-.417-1.723-1.011-3.399-1.771-5z"
        fill="#fff"></path>
    <defs>
        <path id="B"
            d="M115.183 41.346h1.042v.625a2.25 2.25 0 0 1 1.666-.833c.652.014 1.264.319 1.666.833a2.49 2.49 0 0 1 .313 1.562v3.541h-1.042v-3.536a1.37 1.37 0 0 0-.312-1.041 1.32 1.32 0 0 0-.937-.417 1.49 1.49 0 0 0-1.041.417c-.329.45-.478 1.008-.417 1.562v3.02h-1.038v-5.733z">
        </path>
    </defs>
</svg>